<?xml version="1.0" encoding="utf-8"?>
<!-- Generator: Adobe Illustrator 25.2.0, SVG Export Plug-In . SVG Version: 6.00 Build 0)  -->
<svg version="1.1" id="Layer_1" xmlns="http://www.w3.org/2000/svg" xmlns:xlink="http://www.w3.org/1999/xlink" x="0px" y="0px"
	 viewBox="0 0 547.69 108.04" style="enable-background:new 0 0 547.69 108.04;" xml:space="preserve">
<style type="text/css">
	.st0{fill:#0076F8;}
</style>
<g id="_x34_">
	<path class="st0" d="M118.89,0H8.67L0,14.95l54.58,93.09h18.39l54.58-93.09L118.89,0z M29.26,28.64h8.77l33.78,57.61l45.77-79.01
		l4.47,7.7l-50.41,85.98L29.26,28.64z M43.55,28.64h41.01l-20.5,34.97L43.55,28.64z M11.41,4.76h102.11L71.79,76.8l-4.98-8.49
		l32.69-55.75H6.88L11.41,4.76z M6.9,17.32h84.29l-3.85,6.56H20.96l46.56,79.4H57.31L6.9,17.32z"/>
	<g>
		<path d="M174.72,85.16V36.43h-17.16v-12.7h47.71v12.7H188.1v48.73H174.72z"/>
		<path d="M235.98,79.84h-0.86c-2.86,4.46-7.15,6.69-12.87,6.69c-5.26,0-9.18-1.69-11.75-5.06c-2.57-3.37-3.86-7.81-3.86-13.3V43.12
			h12.87v23.6c0,2.29,0.54,4.16,1.63,5.62c1.09,1.46,2.77,2.19,5.06,2.19c2.92,0,5.13-1.12,6.65-3.35c1.51-2.23,2.27-5.15,2.27-8.75
			V43.12h12.87v42.04h-12.01V79.84z"/>
		<path d="M257.6,85.16V23.73h12.87v61.43H257.6z"/>
		<path d="M287.2,39.17c-1.15,0-2.2-0.21-3.17-0.64c-0.97-0.43-1.82-1-2.53-1.72c-0.72-0.71-1.29-1.56-1.72-2.53
			c-0.43-0.97-0.64-2.03-0.64-3.17c0-1.09,0.21-2.13,0.64-3.13c0.43-1,1-1.86,1.72-2.57c0.71-0.71,1.56-1.29,2.53-1.72
			c0.97-0.43,2.03-0.64,3.17-0.64c1.09,0,2.13,0.21,3.13,0.64c1,0.43,1.86,1,2.57,1.72c0.71,0.72,1.29,1.57,1.72,2.57
			c0.43,1,0.64,2.05,0.64,3.13c0,1.15-0.21,2.2-0.64,3.17c-0.43,0.97-1,1.82-1.72,2.53c-0.72,0.72-1.57,1.29-2.57,1.72
			C289.33,38.96,288.29,39.17,287.2,39.17z M280.77,85.16V43.12h12.87v42.04H280.77z"/>
		<path d="M328.73,81.39h-0.86c-1.37,1.49-2.93,2.72-4.68,3.69c-1.75,0.97-3.99,1.46-6.74,1.46c-2.12,0-4.11-0.34-5.96-1.03
			c-1.86-0.69-3.49-1.66-4.89-2.92c-1.4-1.26-2.5-2.77-3.3-4.55c-0.8-1.77-1.2-3.75-1.2-5.92c0-2.12,0.43-4.05,1.29-5.79
			c0.86-1.74,2.03-3.25,3.52-4.5c1.49-1.26,3.25-2.23,5.28-2.92c2.03-0.69,4.25-1.03,6.65-1.03c2.57,0,4.7,0.17,6.39,0.51
			c1.69,0.34,3.19,0.74,4.5,1.2v-1.12c0-1.83-0.76-3.39-2.27-4.68c-1.52-1.29-3.56-1.93-6.13-1.93c-3.72,0-6.92,1.52-9.61,4.55
			l-8.75-6.18c2.4-2.86,5.19-4.99,8.37-6.39c3.17-1.4,6.68-2.1,10.51-2.1c6.86,0,12.04,1.53,15.53,4.59
			c3.49,3.06,5.23,7.71,5.23,13.94v24.88h-12.87V81.39z M328.73,68.6c-1.32-0.51-2.62-0.91-3.9-1.2c-1.29-0.29-2.62-0.43-3.99-0.43
			c-2.29,0-4,0.47-5.15,1.42c-1.14,0.94-1.72,2.16-1.72,3.65c0,1.49,0.54,2.67,1.63,3.56c1.09,0.89,2.52,1.33,4.29,1.33
			c1.43,0,2.7-0.24,3.82-0.73c1.12-0.49,2.04-1.13,2.79-1.93c0.74-0.8,1.3-1.7,1.67-2.7C328.54,70.56,328.73,69.57,328.73,68.6z"/>
		<path d="M423.02,75.21c-6.29,7.55-14.5,11.33-24.62,11.33c-4.58,0-8.84-0.83-12.78-2.49c-3.95-1.66-7.37-3.93-10.25-6.82
			c-2.89-2.89-5.16-6.28-6.82-10.17c-1.66-3.89-2.49-8.09-2.49-12.61c0-4.52,0.83-8.72,2.49-12.61c1.66-3.89,3.93-7.28,6.82-10.17
			c2.89-2.89,6.31-5.16,10.25-6.82c3.95-1.66,8.21-2.49,12.78-2.49c5.03,0,9.4,0.86,13.08,2.57c3.69,1.72,7.05,4.2,10.08,7.46
			l-9.35,9.09c-1.6-1.83-3.52-3.36-5.75-4.59c-2.23-1.23-4.89-1.84-7.98-1.84c-2.69,0-5.19,0.46-7.51,1.37
			c-2.32,0.92-4.33,2.23-6.05,3.95c-1.72,1.72-3.06,3.76-4.03,6.13c-0.97,2.37-1.46,5.02-1.46,7.94c0,2.92,0.49,5.56,1.46,7.94
			c0.97,2.37,2.32,4.42,4.03,6.13s3.73,3.03,6.05,3.95s4.82,1.37,7.51,1.37c3.26,0,6.09-0.66,8.49-1.97c2.4-1.32,4.58-3.2,6.52-5.66
			L423.02,75.21z"/>
		<path d="M432.29,23.73h13.21l17.5,30.03h0.86l17.5-30.03h13.21v61.43h-13.21v-27.2l0.86-10.3h-0.86l-13.99,24.45h-7.89
			L445.5,47.67h-0.86l0.86,10.3v27.2h-13.21V23.73z"/>
		<path d="M526.41,86.53c-5.72,0-10.65-1.53-14.8-4.59c-4.15-3.06-7.08-7.45-8.79-13.17l12.61-4.98c0.74,2.92,1.97,5.32,3.69,7.21
			s4.15,2.83,7.29,2.83c1.03,0,2.02-0.11,2.96-0.34c0.94-0.23,1.77-0.59,2.49-1.07c0.71-0.49,1.3-1.1,1.76-1.84
			c0.46-0.74,0.69-1.6,0.69-2.57c0-0.97-0.19-1.87-0.56-2.7c-0.37-0.83-0.99-1.6-1.84-2.32c-0.86-0.71-2-1.43-3.43-2.14
			c-1.43-0.71-3.23-1.47-5.41-2.27l-3.78-1.37c-1.6-0.57-3.25-1.36-4.93-2.36c-1.69-1-3.22-2.22-4.59-3.65
			c-1.37-1.43-2.49-3.07-3.35-4.93c-0.86-1.86-1.29-3.93-1.29-6.22c0-2.46,0.49-4.78,1.46-6.95c0.97-2.17,2.35-4.05,4.12-5.62
			c1.77-1.57,3.92-2.82,6.43-3.73c2.52-0.91,5.29-1.37,8.32-1.37c3.2,0,5.95,0.42,8.24,1.24c2.29,0.83,4.23,1.89,5.83,3.17
			c1.6,1.29,2.87,2.73,3.82,4.33c0.94,1.6,1.67,3.15,2.19,4.63l-11.58,4.89c-0.63-1.83-1.63-3.3-3-4.42
			c-1.37-1.12-3.15-1.67-5.32-1.67c-2.29,0-4.1,0.47-5.45,1.42c-1.34,0.94-2.02,2.16-2.02,3.65c0,1.54,0.69,2.92,2.06,4.12
			s3.8,2.4,7.29,3.6l3.78,1.29c5.2,1.77,9.24,4.15,12.1,7.12c2.86,2.98,4.29,6.98,4.29,12.01c0,3.2-0.64,5.98-1.93,8.32
			c-1.29,2.35-2.95,4.29-4.98,5.83c-2.03,1.54-4.32,2.7-6.86,3.48C531.38,86.15,528.87,86.53,526.41,86.53z"/>
	</g>
</g>
</svg>
